<svg xmlns="http://www.w3.org/2000/svg" width="512" height="512" viewBox="0 0 512 512" version="1.1"><path d="M 67.500 57.890 C 65.300 58.905, 62.509 60.814, 61.298 62.132 C 60.086 63.449, 58.399 66.194, 57.548 68.232 C 56.214 71.423, 56.003 79.451, 56.022 126.218 C 56.042 176.719, 56.172 180.781, 57.880 184.541 C 58.889 186.764, 61.150 189.790, 62.903 191.265 C 64.656 192.740, 67.757 194.432, 69.795 195.025 C 72.318 195.759, 92.991 196.007, 134.574 195.802 C 195.648 195.500, 195.648 195.500, 199.164 193.090 C 201.098 191.765, 203.628 189.290, 204.787 187.590 C 205.945 185.891, 207.330 182.541, 207.863 180.147 C 208.559 177.026, 208.469 174.389, 207.545 170.827 C 206.755 167.780, 204.951 164.488, 202.878 162.311 C 201.020 160.359, 198.052 158.140, 196.282 157.381 C 193.693 156.270, 183.589 156, 144.532 156 L 96 156 96 130.509 L 96 105.017 102.750 107.610 C 106.463 109.036, 114.675 111.971, 121 114.133 C 127.325 116.294, 139.250 119.833, 147.500 121.997 C 155.750 124.161, 168.306 127.079, 175.402 128.480 C 182.498 129.882, 195.773 132.009, 204.902 133.207 C 218.951 135.052, 226.568 135.395, 254.500 135.443 C 275.364 135.479, 291.545 135.028, 298.500 134.216 C 304.550 133.509, 316.475 131.810, 325 130.440 C 333.525 129.069, 346.957 126.361, 354.849 124.421 C 362.741 122.481, 374.933 119.133, 381.941 116.981 C 388.950 114.829, 399.255 111.287, 404.842 109.109 L 415 105.151 415 130.575 L 415 156 366.712 156 C 318.620 156, 318.406 156.009, 313.975 158.250 C 311.503 159.501, 308.291 162.280, 306.745 164.506 C 304.999 167.021, 303.737 170.422, 303.356 173.642 C 302.858 177.850, 303.204 179.766, 305.286 184.313 C 307.111 188.300, 309.019 190.646, 312.088 192.677 C 316.352 195.500, 316.352 195.500, 378.478 195.772 C 440.603 196.044, 440.603 196.044, 445.051 193.698 C 447.650 192.328, 450.748 189.511, 452.500 186.926 C 455.500 182.500, 455.500 182.500, 455.783 127.577 C 456.066 72.655, 456.066 72.655, 453.434 67.276 C 451.675 63.681, 449.451 61.003, 446.726 59.199 C 443.306 56.935, 441.335 56.444, 434.503 56.155 C 426.357 55.809, 426.357 55.809, 408.929 63.278 C 399.343 67.386, 386.100 72.633, 379.500 74.939 C 372.900 77.245, 361.650 80.669, 354.500 82.548 C 347.350 84.427, 336.100 87.057, 329.500 88.394 C 322.900 89.730, 311.875 91.540, 305 92.415 C 298.125 93.291, 284.325 94.426, 274.334 94.939 C 263.007 95.520, 248.946 95.514, 236.985 94.922 C 226.435 94.401, 211.240 93.053, 203.218 91.927 C 195.196 90.801, 184.453 89.019, 179.344 87.968 C 174.235 86.917, 166.400 85.123, 161.932 83.983 C 157.465 82.842, 148.340 80.165, 141.655 78.033 C 134.970 75.902, 125.391 72.583, 120.369 70.657 C 115.346 68.731, 105.565 64.646, 98.632 61.578 C 87.063 56.458, 85.430 56.002, 78.764 56.022 C 73.852 56.037, 70.205 56.642, 67.500 57.890 M 236.500 157.890 C 234.300 158.905, 231.509 160.814, 230.298 162.132 C 229.086 163.449, 227.399 166.194, 226.548 168.232 C 225.696 170.269, 225.010 173.863, 225.022 176.218 C 225.034 178.573, 225.875 182.300, 226.890 184.500 C 227.905 186.700, 229.814 189.491, 231.132 190.702 C 232.449 191.914, 235.194 193.601, 237.232 194.452 C 240.030 195.622, 244.696 196, 256.311 196 C 270.478 196, 272.032 195.817, 276.093 193.672 C 278.987 192.144, 281.530 189.682, 283.500 186.501 C 285.909 182.611, 286.500 180.542, 286.500 176 C 286.500 171.458, 285.909 169.389, 283.500 165.499 C 281.530 162.318, 278.987 159.856, 276.093 158.328 C 272.017 156.175, 270.511 156.002, 256.093 156.022 C 243.076 156.040, 239.839 156.349, 236.500 157.890 M 111.921 215.893 C 68.342 216.500, 68.342 216.500, 64.741 219.248 C 62.760 220.759, 60.127 223.418, 58.889 225.156 C 57.486 227.126, 56.475 230.286, 56.205 233.546 C 55.966 236.423, 56.311 240.413, 56.971 242.413 C 57.632 244.414, 59.352 247.453, 60.795 249.168 C 62.237 250.882, 65.236 253.111, 67.459 254.120 C 71.108 255.778, 74.625 255.958, 103.750 255.978 L 136 256 136.022 348.250 C 136.043 435.588, 136.142 440.715, 137.880 444.541 C 138.889 446.764, 141.150 449.790, 142.903 451.265 C 144.656 452.740, 147.978 454.456, 150.285 455.077 C 152.592 455.698, 156.509 455.933, 158.990 455.600 C 161.470 455.266, 165.265 453.757, 167.423 452.247 C 169.581 450.736, 172.394 447.517, 173.673 445.093 C 176 440.685, 176 440.685, 176 348.343 L 176 256 255.500 256 L 335 256 335 345.451 C 335 403.930, 335.362 436.590, 336.046 439.779 C 336.648 442.584, 338.423 446.271, 340.225 448.457 C 341.949 450.548, 345.190 453.090, 347.429 454.107 C 349.668 455.124, 353.324 455.966, 355.554 455.978 C 357.927 455.991, 361.716 454.949, 364.694 453.465 C 367.964 451.836, 370.801 449.426, 372.640 446.715 C 375.500 442.500, 375.500 442.500, 375.770 349.250 L 376.040 256 408.204 256 C 438.830 256, 440.576 255.900, 444.704 253.901 C 447.396 252.598, 450.263 250.039, 452.267 247.151 C 455.113 243.049, 455.494 241.714, 455.497 235.836 C 455.500 230.054, 455.102 228.599, 452.493 224.836 C 450.665 222.199, 447.681 219.602, 444.879 218.209 C 440.271 215.919, 440.271 215.919, 297.886 215.603 C 219.574 215.429, 135.889 215.560, 111.921 215.893" stroke="none" fill="#9A476B" fill-rule="evenodd"/></svg>