<svg xmlns="http://www.w3.org/2000/svg" width="850" height="190" viewBox="0 0 850 190" version="1.1"><path d="M 201.493 3.167 C 201.213 3.900, 201.100 45.669, 201.242 95.986 C 201.485 182.307, 201.599 187.492, 203.255 187.811 C 204.920 188.131, 204.997 183.377, 204.755 95.408 C 204.554 22.307, 204.235 2.578, 203.251 2.250 C 202.563 2.021, 201.772 2.434, 201.493 3.167 M 3.090 30.910 C 1.101 32.899, 1 34.026, 1 54.326 C 1 82.473, -1.623 80, 28.233 80 C 40.665 80, 51.565 79.720, 52.455 79.379 C 53.346 79.037, 54.768 77.416, 55.616 75.776 C 56.884 73.323, 56.942 72.274, 55.942 69.859 C 55.273 68.245, 53.917 66.491, 52.929 65.962 C 51.940 65.433, 43.227 65, 33.566 65 L 16 65 16 56.021 L 16 47.043 22.750 49.453 C 54.942 60.946, 96.170 60.758, 126.048 48.981 L 131 47.029 131 56.015 L 131 65 113.174 65 C 95.834 65, 95.289 65.063, 93.174 67.314 C 90.286 70.389, 90.348 75.039, 93.314 77.826 C 95.553 79.929, 96.386 80, 118.814 80 C 149.408 80, 147.300 82.086, 146.812 52.285 C 146.532 35.184, 146.302 32.986, 144.595 31.102 C 141.807 28.025, 135.719 28.346, 127.672 31.995 C 113.355 38.486, 91.477 43.003, 74.372 42.997 C 56.294 42.991, 40.596 40.024, 23.928 33.461 C 11.948 28.744, 5.986 28.014, 3.090 30.910 M 445.655 64.829 C 444.745 65.835, 444.051 67.072, 444.113 67.579 C 444.175 68.085, 446.879 70.937, 450.121 73.917 L 456.016 79.333 458.527 76.974 C 459.908 75.677, 460.917 74.266, 460.769 73.839 C 460.421 72.835, 448.788 63, 447.948 63 C 447.597 63, 446.565 63.823, 445.655 64.829 M 64.911 66.871 C 63.238 68.225, 62.600 69.780, 62.600 72.500 C 62.600 78.092, 65.484 80, 73.936 80 C 79.663 80, 80.972 79.659, 82.826 77.686 C 85.714 74.611, 85.652 69.961, 82.686 67.174 C 79.539 64.218, 68.421 64.029, 64.911 66.871 M 292.618 69.750 C 292.304 72.362, 291.760 77.534, 291.408 81.243 C 290.688 88.837, 292.207 87.701, 278 91.273 C 272.563 92.640, 272.504 92.695, 272.831 96.078 C 273.014 97.960, 273.468 99.819, 273.841 100.209 C 274.214 100.600, 278.053 100.013, 282.373 98.907 C 286.693 97.800, 290.353 97.031, 290.506 97.197 C 290.659 97.364, 290.458 99.609, 290.060 102.186 C 289.307 107.061, 286.072 111.994, 275.298 124.695 C 272.384 128.129, 270.003 131.291, 270.007 131.720 C 270.020 133.222, 277.133 137.402, 277.828 136.317 C 278.198 135.740, 280.975 132.025, 284 128.061 L 289.500 120.853 289.775 136.926 L 290.050 153 294.525 153 L 299 153 299 132.203 L 299 111.406 302.750 107.846 C 307.991 102.871, 315.475 97.995, 321.976 95.320 C 331.189 91.530, 337.665 92.611, 340.350 98.389 C 342.312 102.612, 343.341 112.751, 342.523 119.804 L 341.849 125.607 334.675 123.782 C 324.595 121.218, 317.780 123.033, 313.960 129.299 C 310.114 135.605, 312.098 143.034, 318.726 147.151 C 321.649 148.967, 323.853 149.478, 328.500 149.417 C 335.487 149.325, 340.030 147.298, 344.730 142.174 L 347.960 138.653 353.038 142.935 C 355.831 145.290, 358.236 147.056, 358.382 146.859 C 360.443 144.078, 363 140.062, 363 139.607 C 363 139.286, 360.260 137.029, 356.911 134.592 L 350.822 130.162 350.661 114.331 C 350.515 100.024, 350.284 98.096, 348.259 94.308 C 347.027 92.002, 344.360 88.852, 342.334 87.308 C 339.151 84.882, 337.754 84.502, 332.074 84.518 C 324.441 84.540, 316.154 87.942, 305.367 95.482 L 298.949 99.968 301.475 96.252 C 304.532 91.753, 304.573 90.998, 301.944 87.656 C 300.036 85.231, 299.954 84.376, 300.798 75.771 C 301.298 70.672, 301.522 66.162, 301.295 65.750 C 301.068 65.338, 299.151 65, 297.035 65 C 293.192 65, 293.187 65.005, 292.618 69.750 M 515 73.420 L 515 81.956 496.250 82.228 L 477.500 82.500 477.189 86.820 L 476.878 91.140 495.939 90.424 L 515 89.709 515 95.854 L 515 102 504.250 102.009 C 498.337 102.013, 491.137 102.301, 488.250 102.648 L 483 103.279 483 107.296 L 483 111.313 499 110.683 L 515 110.054 515.002 116.777 L 515.005 123.500 506.252 123.230 C 498.670 122.996, 496.978 123.263, 493.594 125.230 C 487.964 128.502, 485.833 131.834, 485.833 137.365 C 485.833 143.586, 488.505 147.972, 493.985 150.750 C 499.800 153.698, 508.703 153.806, 514.500 151 C 519.005 148.819, 523 143.026, 523 138.673 C 523 137.268, 523.438 135.847, 523.973 135.516 C 525.150 134.789, 538.566 140.871, 545.256 145.164 C 547.907 146.865, 550.205 148.087, 550.362 147.879 C 550.519 147.670, 551.619 146.092, 552.806 144.371 L 554.964 141.242 551.141 138.712 C 546.114 135.385, 532.486 128.597, 527.750 127.061 L 524 125.845 524 118.072 L 524 110.299 533.154 109.650 C 538.188 109.292, 544.713 109, 547.654 109 L 553 109 553 104.906 L 553 100.812 538.499 101.156 L 523.999 101.500 523.999 95.750 C 524 91.889, 524.411 89.956, 525.250 89.865 C 525.938 89.790, 533.695 89.453, 542.489 89.115 C 559.818 88.448, 560.058 88.352, 558.616 82.606 C 558.057 80.379, 557.987 80.372, 541.072 80.812 L 524.089 81.253 523.794 73.377 L 523.500 65.500 519.250 65.193 L 515 64.885 515 73.420 M 409.250 66.706 C 406.522 67.231, 406.369 69.513, 408.568 76.917 C 409.430 79.821, 409.885 82.448, 409.578 82.755 C 409.272 83.062, 402.604 83.767, 394.760 84.322 C 386.917 84.878, 380.358 85.437, 380.184 85.565 C 380.011 85.693, 380.367 87.647, 380.975 89.908 C 381.913 93.390, 382.419 93.949, 384.291 93.571 C 385.506 93.326, 390.325 92.862, 395 92.541 C 399.675 92.220, 405.601 91.688, 408.169 91.360 L 412.839 90.764 414.989 94.979 C 416.172 97.297, 416.883 99.451, 416.569 99.764 C 415.617 100.717, 405.209 101.919, 391.750 102.632 C 384.738 103.004, 379.003 103.576, 379.006 103.904 C 379.009 104.232, 379.490 106.225, 380.076 108.334 L 381.140 112.168 389.820 111.515 C 394.594 111.157, 403.633 110.222, 409.906 109.438 C 417.152 108.533, 421.728 108.360, 422.454 108.962 C 423.082 109.483, 425.005 111.871, 426.727 114.269 L 429.857 118.628 423.311 117.687 C 411.286 115.958, 396.185 120.135, 391.102 126.597 C 383.455 136.319, 389.085 149.807, 402.166 153.105 C 408.103 154.602, 432.510 154.697, 437.500 153.242 C 440.136 152.473, 440.537 151.860, 440.807 148.195 L 441.114 144.023 436.307 144.761 C 428.506 145.960, 407.892 145.569, 403.766 144.145 C 392.992 140.425, 394.787 130.862, 406.921 127.335 C 413.887 125.309, 427.804 126.004, 436.755 128.823 L 443.011 130.794 445.005 127.992 C 447.615 124.327, 447.530 123.547, 444.250 121.063 C 442.738 119.919, 439.174 116.181, 436.331 112.759 L 431.162 106.536 442.191 103.824 C 448.258 102.333, 453.441 100.892, 453.710 100.623 C 453.979 100.354, 453.664 98.511, 453.009 96.528 C 452.138 93.889, 451.375 93.059, 450.160 93.433 C 444.953 95.033, 431.101 97.987, 428.776 97.993 C 426.743 97.998, 425.649 97.221, 424.465 94.932 C 423.592 93.245, 423.046 91.361, 423.251 90.746 C 423.456 90.131, 427.374 88.822, 431.957 87.836 C 436.540 86.850, 440.517 85.816, 440.795 85.539 C 441.072 85.261, 440.871 83.564, 440.348 81.767 C 439.234 77.941, 438.345 77.843, 427.030 80.290 C 422.482 81.274, 419.331 81.535, 418.974 80.958 C 418.652 80.437, 417.571 76.858, 416.571 73.005 C 414.690 65.753, 414.600 65.675, 409.250 66.706 M 438.495 71.647 L 436.782 74.262 442.885 80.365 L 448.987 86.467 451.723 83.731 L 454.460 80.995 449.060 76.247 C 440.357 68.596, 440.464 68.643, 438.495 71.647 M 799.310 72.081 C 794.757 73.765, 793.704 79.434, 797.314 82.826 C 800.869 86.165, 805.702 85.293, 808.061 80.886 C 810.586 76.168, 804.585 70.130, 799.310 72.081 M 602 97.962 C 602 120.950, 602.168 123.373, 604.121 128.593 C 608.221 139.553, 616.888 145.905, 628.898 146.755 C 637.029 147.331, 642.400 145.952, 648.558 141.708 C 654.501 137.613, 658.554 130.595, 659.938 122 C 660.514 118.425, 660.988 105.938, 660.992 94.250 L 661 73 655.500 73 L 650 73 649.994 96.750 C 649.991 110.001, 649.532 122.144, 648.956 124.219 C 647.817 128.321, 643.962 133.412, 640.642 135.198 C 634.662 138.415, 625.331 137.796, 619.733 133.810 C 613.648 129.477, 613.046 126.289, 613.022 98.250 L 613 73 607.500 73 L 602 73 602 97.962 M 677 109.500 L 677 146 682.500 146 L 688 146 688 109.500 L 688 73 682.500 73 L 677 73 677 109.500 M 731.344 88.159 C 731.705 96.496, 732 112.921, 732 124.659 L 732 146 737 146 L 742 146 742 129.500 L 742 113 745.893 113 C 749.683 113, 750.169 113.441, 764.090 129.500 L 778.394 146 784.256 146 C 788.687 146, 789.931 145.695, 789.352 144.750 C 787.318 141.430, 758.637 108, 757.823 108 C 757.309 108, 757.978 106.987, 759.309 105.750 C 761.305 103.894, 781.688 80.954, 786.853 74.750 C 788.213 73.116, 787.915 73, 782.358 73 L 776.406 73 763.113 88.059 C 755.802 96.341, 748.707 103.541, 747.345 104.059 C 741.947 106.111, 742 106.260, 742 89 L 742 73 736.344 73 L 730.688 73 731.344 88.159 M 827.219 78.250 C 826.654 78.938, 825.888 82.200, 825.514 85.500 C 824.499 94.479, 824.339 94.767, 819.958 95.507 C 816.407 96.107, 816 96.475, 816 99.088 C 816 101.811, 816.255 102, 819.939 102 L 823.879 102 824.189 120.937 L 824.500 139.874 827.373 142.870 C 832.008 147.704, 841.342 147.972, 847.768 143.455 L 850.037 141.861 847.994 138.992 C 845.986 136.172, 845.889 136.148, 842.381 137.614 C 839.186 138.949, 838.558 138.940, 836.405 137.530 C 834.021 135.968, 834 135.804, 834 118.977 L 834 102 841.500 102 L 849 102 849 98.500 L 849 95 841.500 95 L 834 95 834 86 L 834 77 831.122 77 C 829.540 77, 827.783 77.563, 827.219 78.250 M 3 89 C 0.022 91.978, 0.333 97.330, 3.635 99.927 C 5.964 101.760, 7.645 102, 18.135 102 L 30 102 30 135.418 C 30 153.798, 30.292 169.598, 30.650 170.529 C 31.628 173.078, 36.912 174.984, 39.875 173.857 C 44.919 171.940, 44.934 171.828, 44.968 135.750 L 45 102 73.451 102 L 101.901 102 102.201 135.974 C 102.495 169.422, 102.534 169.981, 104.694 172.140 C 107.570 175.014, 112.431 175.014, 115.306 172.140 C 117.467 169.980, 117.504 169.430, 117.788 135.973 L 118.076 102 128.991 102 C 134.994 102, 141.022 101.492, 142.385 100.870 C 147.459 98.559, 147.910 90.628, 143.114 88.061 C 141.772 87.343, 119.131 87, 73.066 87 C 6.333 87, 4.961 87.039, 3 89 M 797 120 L 797 146 802 146 L 807 146 807 120 L 807 94 802 94 L 797 94 797 120 M 322.750 132.080 C 320.145 133.597, 320.563 137.667, 323.521 139.606 C 325.287 140.763, 327.264 141.094, 330.119 140.711 C 334.179 140.166, 339.338 136.513, 338.709 134.627 C 337.807 131.922, 326.202 130.070, 322.750 132.080 M 496.455 133.455 C 495.105 134.805, 494 137.044, 494 138.431 C 494 143.282, 502.895 146.324, 509.279 143.657 C 512.231 142.423, 513.090 141.380, 514.033 137.879 C 515.543 132.268, 513.926 131, 505.263 131 C 499.850 131, 498.546 131.364, 496.455 133.455" stroke="none" fill="#9A476B" fill-rule="evenodd"/></svg>